<control> default_path=Release\
<region> hikey=c#3 pitch_keycenter=c3 sample=3_C_r.wav
<region> lokey=d3 hikey=e3 pitch_keycenter=d#3 sample=3_Eb_r.wav
<region> lokey=f3 hikey=g3 pitch_keycenter=f#3 sample=3_Gb_r.wav
<region> lokey=g#3 hikey=a#3 pitch_keycenter=a3 sample=3_A_r.wav
<region> lokey=b3 hikey=c#4 pitch_keycenter=c4 sample=4_C_r.wav
<region> lokey=d4 hikey=e4 pitch_keycenter=d#4 sample=4_Eb_r.wav
<region> lokey=f4 hikey=g4 pitch_keycenter=f#4 sample=4_Gb_r.wav
<region> lokey=g#4 hikey=a#4 pitch_keycenter=a4 sample=4_A_r.wav
<region> lokey=b4 hikey=c#5 pitch_keycenter=c5 sample=5_C_r.wav
<region> lokey=d5 hikey=e5 pitch_keycenter=d#5 sample=5_Eb_r.wav
<region> lokey=f5 hikey=g5 pitch_keycenter=f#5 sample=5_Gb_r.wav
<region> lokey=g#5 pitch_keycenter=a5 sample=5_A_r.wav